<svg xmlns="http://www.w3.org/2000/svg" width="20.413" height="11.493" viewBox="0 0 20.413 11.493">
  <g id="Group_1756" data-name="Group 1756" transform="translate(-16 -17.16)">
    <path id="Icon_awesome-check" data-name="Icon awesome-check" d="M5.235,15.845.226,10.836a.771.771,0,0,1,0-1.09l1.09-1.09a.771.771,0,0,1,1.09,0L5.78,12.03,13.007,4.8a.771.771,0,0,1,1.09,0l1.09,1.09a.771.771,0,0,1,0,1.09L6.325,15.845A.771.771,0,0,1,5.235,15.845Z" transform="translate(16 12.583)" fill="#fff"/>
    <path id="Icon_awesome-check-2" data-name="Icon awesome-check" d="M5.235,15.845.226,10.836a.771.771,0,0,1,0-1.09l1.09-1.09a.771.771,0,0,1,1.09,0L5.78,12.03,13.007,4.8a.771.771,0,0,1,1.09,0l1.09,1.09a.771.771,0,0,1,0,1.09L6.325,15.845A.771.771,0,0,1,5.235,15.845Z" transform="translate(21 12.583)" fill="#fff" opacity="0.3"/>
  </g>
</svg>
