<svg xmlns="http://www.w3.org/2000/svg" xmlns:xlink="http://www.w3.org/1999/xlink" width="360" height="81.368" viewBox="0 0 360 81.368">
  <defs>
    <clipPath id="clip-path">
      <rect y="6" width="360" height="81.368" fill="none"/>
    </clipPath>
    <clipPath id="clip-path-2">
      <rect x="371" y="-6" width="360" height="96.368" fill="none"/>
    </clipPath>
    <linearGradient id="linear-gradient" y1="0.5" x2="1" y2="0.5" gradientUnits="objectBoundingBox">
      <stop offset="0" stop-color="#f93d3d"/>
      <stop offset="0.464" stop-color="#fc4848"/>
      <stop offset="1" stop-color="#f93d3d" stop-opacity="0.502"/>
    </linearGradient>
    <linearGradient id="linear-gradient-2" x1="0.559" y1="-0.206" x2="0.473" y2="0.791" xlink:href="#linear-gradient"/>
  </defs>
  <g id="Scroll_Group_8" data-name="Scroll Group 8" transform="translate(0 -6)" clip-path="url(#clip-path)" style="isolation: isolate">
    <g id="Component_20_2" data-name="Component 20 – 2">
      <g id="Scroll_Group_5" data-name="Scroll Group 5" transform="translate(-371 6)" clip-path="url(#clip-path-2)" style="isolation: isolate">
        <g id="Group_1680" data-name="Group 1680" transform="translate(371 0)">
          <g id="Group_1659" data-name="Group 1659">
            <path id="Path_874" data-name="Path 874" d="M516.873,26.462c-20.948.356-41.625,2.967-60.577,8.273C434.75,40.769,416.257,49.95,396.4,57.756s-42.31,14.451-66.155,14.314c-37.562-.216-68.223-16.693-103.081-25.227,31.264-12.184,59.731-27.03,91.72-38.636,8.276-3,17-5.78,26.007-8.208H470.4C488.378,6.727,503.034,16.3,516.873,26.462Z" transform="translate(-248.873 0)" fill="url(#linear-gradient)"/>
            <path id="Path_871" data-name="Path 871" d="M632.09,0V71.368c-43.845,5.169-93.858,6.384-138.27-5.042-61.194-15.745-62.373-42.8-111.274-47.7-64.842-6.505-97.118,43.413-189.627,47.7C101.562,70.564,32.481,51.953,0,40.9V0Z" transform="translate(-272)" fill="url(#linear-gradient-2)"/>
            <path id="Path_920" data-name="Path 920" d="M632.09,0V91.513c-43.845,6.628-93.858,8.186-138.27-6.465-61.194-20.19-62.373-54.875-111.274-61.168C317.7,15.539,285.429,79.547,192.919,85.048,101.562,90.482,32.481,66.618,0,52.449V0Z" transform="translate(16 -6)" opacity="0.6" fill="url(#linear-gradient-2)"/>
            <path id="Path_872" data-name="Path 872" d="M159.837,0a169.724,169.724,0,0,0-17.444,8.208c-27.141,14.68-50.5,34.545-78.661,47.647C44.374,64.859,21.2,70.146,0,67.519V0Z" fill="url(#linear-gradient)"/>
            <path id="Path_873" data-name="Path 873" d="M848.955,0V93.771C815.4,81.895,785.143,66.64,760.132,48.653,736.514,31.67,715.83,11.609,685.448,0Z" transform="translate(-468.745 -5)" fill="url(#linear-gradient)"/>
          </g>
          <g id="Group_1679" data-name="Group 1679" transform="translate(16.339 11.763)">
            <g id="Group_1675" data-name="Group 1675">
              <ellipse id="Ellipse_35" data-name="Ellipse 35" cx="6.383" cy="6.369" rx="6.383" ry="6.369" transform="translate(47.912 -2.132)" fill="none" stroke="#fff" stroke-miterlimit="10" stroke-width="1.791" opacity="0.5" style="mix-blend-mode: screen;isolation: isolate"/>
              <ellipse id="Ellipse_36" data-name="Ellipse 36" cx="6.383" cy="6.369" rx="6.383" ry="6.369" transform="translate(246.552 25.947)" fill="none" stroke="#fff" stroke-miterlimit="10" stroke-width="1.791" opacity="0.5" style="mix-blend-mode: screen;isolation: isolate"/>
              <path id="Path_875" data-name="Path 875" d="M50.668,96.257,45.9,104.5H55.44Z" transform="translate(20.221 -56.651)" fill="none" stroke="#fff" stroke-miterlimit="10" stroke-width="1.791" opacity="0.5"/>
              <g id="Group_1663" data-name="Group 1663" transform="translate(310.021 5.716)">
                <g id="Group_1660" data-name="Group 1660">
                  <path id="Path_876" data-name="Path 876" d="M917.259,50.128a.514.514,0,0,1-.516-.514h0a.515.515,0,0,1,.516-.517h0a.516.516,0,0,1,.516.517h0A.515.515,0,0,1,917.259,50.128Zm0,5.3a.514.514,0,0,1-.516-.515h0a.515.515,0,0,1,.516-.515h0a.516.516,0,0,1,.516.515h0A.515.515,0,0,1,917.259,55.425Zm0,5.3a.514.514,0,0,1-.516-.515h0a.515.515,0,0,1,.516-.515h0a.516.516,0,0,1,.516.515h0A.515.515,0,0,1,917.259,60.722Zm0,5.3a.514.514,0,0,1-.516-.515h0a.515.515,0,0,1,.516-.515h0a.516.516,0,0,1,.516.515h0A.515.515,0,0,1,917.259,66.019Zm0,5.3a.514.514,0,0,1-.516-.515h0a.514.514,0,0,1,.516-.513h0a.515.515,0,0,1,.516.513h0A.515.515,0,0,1,917.259,71.316Zm0,5.3a.514.514,0,0,1-.516-.515h0a.515.515,0,0,1,.516-.515h0a.516.516,0,0,1,.516.515h0A.515.515,0,0,1,917.259,76.613Zm0,5.3a.514.514,0,0,1-.516-.515h0a.515.515,0,0,1,.516-.515h0a.516.516,0,0,1,.516.515h0A.515.515,0,0,1,917.259,81.91Zm0,5.3a.515.515,0,0,1-.516-.517h0a.515.515,0,0,1,.516-.515h0a.516.516,0,0,1,.516.515h0A.516.516,0,0,1,917.259,87.209Zm0,5.3a.514.514,0,0,1-.516-.515h0a.515.515,0,0,1,.516-.515h0a.516.516,0,0,1,.516.515h0A.515.515,0,0,1,917.259,92.5Z" transform="translate(-916.743 -49.098)" fill="#fff"/>
                </g>
                <g id="Group_1661" data-name="Group 1661" transform="translate(6.134)">
                  <path id="Path_877" data-name="Path 877" d="M934.489,50.128a.515.515,0,0,1-.516-.514h0a.517.517,0,0,1,.516-.517h0a.516.516,0,0,1,.516.517h0A.515.515,0,0,1,934.489,50.128Zm0,5.3a.515.515,0,0,1-.516-.515h0a.516.516,0,0,1,.516-.515h0a.516.516,0,0,1,.516.515h0A.515.515,0,0,1,934.489,55.425Zm0,5.3a.515.515,0,0,1-.516-.515h0a.516.516,0,0,1,.516-.515h0a.516.516,0,0,1,.516.515h0A.515.515,0,0,1,934.489,60.722Zm0,5.3a.515.515,0,0,1-.516-.515h0a.516.516,0,0,1,.516-.515h0a.516.516,0,0,1,.516.515h0A.515.515,0,0,1,934.489,66.019Zm0,5.3a.515.515,0,0,1-.516-.515h0a.515.515,0,0,1,.516-.513h0a.515.515,0,0,1,.516.513h0A.515.515,0,0,1,934.489,71.316Zm0,5.3a.515.515,0,0,1-.516-.515h0a.516.516,0,0,1,.516-.515h0a.516.516,0,0,1,.516.515h0A.515.515,0,0,1,934.489,76.613Zm0,5.3a.515.515,0,0,1-.516-.515h0a.516.516,0,0,1,.516-.515h0a.516.516,0,0,1,.516.515h0A.515.515,0,0,1,934.489,81.91Zm0,5.3a.517.517,0,0,1-.516-.517h0a.516.516,0,0,1,.516-.515h0a.516.516,0,0,1,.516.515h0A.516.516,0,0,1,934.489,87.209Zm0,5.3a.515.515,0,0,1-.516-.515h0a.516.516,0,0,1,.516-.515h0a.516.516,0,0,1,.516.515h0A.515.515,0,0,1,934.489,92.5Z" transform="translate(-933.973 -49.098)" fill="#fff"/>
                </g>
                <g id="Group_1662" data-name="Group 1662" transform="translate(12.27)">
                  <path id="Path_878" data-name="Path 878" d="M951.724,50.128a.514.514,0,0,1-.516-.514h0a.516.516,0,0,1,.516-.517h0a.515.515,0,0,1,.515.517h0A.514.514,0,0,1,951.724,50.128Zm0,5.3a.515.515,0,0,1-.516-.515h0a.515.515,0,0,1,.516-.515h0a.515.515,0,0,1,.515.515h0A.514.514,0,0,1,951.724,55.425Zm0,5.3a.515.515,0,0,1-.516-.515h0a.515.515,0,0,1,.516-.515h0a.515.515,0,0,1,.515.515h0A.514.514,0,0,1,951.724,60.722Zm0,5.3a.514.514,0,0,1-.516-.515h0a.515.515,0,0,1,.516-.515h0a.515.515,0,0,1,.515.515h0A.514.514,0,0,1,951.724,66.019Zm0,5.3a.515.515,0,0,1-.516-.515h0a.514.514,0,0,1,.516-.513h0a.513.513,0,0,1,.515.513h0A.514.514,0,0,1,951.724,71.316Zm0,5.3a.515.515,0,0,1-.516-.515h0a.515.515,0,0,1,.516-.515h0a.515.515,0,0,1,.515.515h0A.514.514,0,0,1,951.724,76.613Zm0,5.3a.515.515,0,0,1-.516-.515h0a.515.515,0,0,1,.516-.515h0a.515.515,0,0,1,.515.515h0A.514.514,0,0,1,951.724,81.91Zm0,5.3a.516.516,0,0,1-.516-.517h0a.515.515,0,0,1,.516-.515h0a.515.515,0,0,1,.515.515h0A.515.515,0,0,1,951.724,87.209Zm0,5.3a.514.514,0,0,1-.516-.515h0a.515.515,0,0,1,.516-.515h0a.515.515,0,0,1,.515.515h0A.514.514,0,0,1,951.724,92.5Z" transform="translate(-951.208 -49.098)" fill="#fff"/>
                </g>
              </g>
              <path id="Path_879" data-name="Path 879" d="M467.848,45.772c.436.887.888,1.8,1.838,1.8s1.4-.917,1.838-1.8c.405-.823.788-1.6,1.513-1.6s1.107.778,1.512,1.6c.436.886.888,1.8,1.838,1.8s1.4-.917,1.838-1.8c.405-.823.788-1.6,1.513-1.6s1.107.778,1.513,1.6c.436.886.888,1.8,1.838,1.8s1.4-.917,1.838-1.8c.405-.823.788-1.6,1.513-1.6s1.107.778,1.513,1.6c.436.886.887,1.8,1.837,1.8h.138v-.362h-.138c-.725,0-1.107-.778-1.513-1.6-.436-.886-.887-1.8-1.837-1.8s-1.4.917-1.838,1.8c-.405.823-.787,1.6-1.512,1.6s-1.108-.778-1.513-1.6c-.436-.887-.887-1.8-1.838-1.8s-1.4.917-1.838,1.8c-.405.823-.788,1.6-1.512,1.6s-1.108-.778-1.513-1.6c-.436-.887-.887-1.8-1.838-1.8s-1.4.917-1.838,1.8c-.405.823-.788,1.6-1.513,1.6s-1.107-.778-1.513-1.6c-.436-.886-.888-1.8-1.838-1.8H466.2v.362h.138C467.061,44.171,467.443,44.948,467.848,45.772Z" transform="translate(-316.57 -39.976)" fill="#fff" opacity="0.65"/>
            </g>
          </g>
        </g>
      </g>
    </g>
    <path id="Icon_ionic-ios-arrow-back" data-name="Icon ionic-ios-arrow-back" d="M14.525,15.691l7.189-7.183A1.358,1.358,0,0,0,19.791,6.59L11.646,14.73a1.355,1.355,0,0,0-.04,1.872l8.179,8.2a1.358,1.358,0,0,0,1.923-1.917Z" transform="translate(4.75 23.175)" fill="#fff"/>
  </g>
</svg>
